{
  "source": "C:\\Users\\Peter\\Desktop\\stuff\\MIUN\\quantitative_research\\video_compression\\videos\\BVI-HD\\BVI-HD_CDVL_videos\\ORIG\\DiverFishAndRock_1920x1080_30fps.mp4",
  "output": "C:\\Users\\Peter\\Desktop\\stuff\\MIUN\\quantitative_research\\video_compression\\compressed_videos\\BVI-HD\\vp9\\2.5\\DiverFishAndRock_1920x1080_30fps_vp9.webm",
  "codec": "vp9",
  "ok": "Input #0, mov,mp4,m4a,3gp,3g2,mj2, from 'C:\\Users\\Peter\\Desktop\\stuff\\MIUN\\quantitative_research\\video_compression\\videos\\BVI-HD\\BVI-HD_CDVL_videos\\ORIG\\DiverFishAndRock_1920x1080_30fps.mp4':\n  Metadata:\n    major_brand     : isom\n    minor_version   : 512\n    compatible_brands: isomiso2avc1mp41\n    encoder         : Lavf54.28.101\n  Duration: 00:00:05.00, start: 0.000000, bitrate: 228854 kb/s\n  Stream #0:0[0x1](und): Video: h264 (High 4:4:4 Predictive) (avc1 / 0x31637661), yuv420p(progressive), 1920x1080, 228851 kb/s, 30 fps, 30 tbr, 30 tbn (default)\n    Metadata:\n      handler_name    : VideoHandler\n      vendor_id       : [0][0][0][0]\n[out#0/webm @ 000001e066cc0c00] Codec AVOption b:a (set bitrate (in bits/s)) has not been used for any stream. The most likely reason is either wrong type (e.g. a video option with no video streams) or that it is a private option of some decoder which was not actually used for any stream.\nStream mapping:\n  Stream #0:0 -> #0:0 (h264 (native) -> vp9 (libvpx-vp9))\nPress [q] to stop, [?] for help\n[libvpx-vp9 @ 000001e066cbc300] v1.15.2-100-g40561f514\nOutput #0, webm, to 'C:\\Users\\Peter\\Desktop\\stuff\\MIUN\\quantitative_research\\video_compression\\compressed_videos\\BVI-HD\\vp9\\2.5\\DiverFishAndRock_1920x1080_30fps_vp9.webm':\n  Metadata:\n    major_brand     : isom\n    minor_version   : 512\n    compatible_brands: isomiso2avc1mp41\n    encoder         : Lavf62.3.100\n  Stream #0:0(und): Video: vp9, yuv420p(tv, progressive), 1920x1080, q=2-31, 2500 kb/s, 30 fps, 1k tbn (default)\n    Metadata:\n      encoder         : Lavc62.11.100 libvpx-vp9\n      handler_name    : VideoHandler\n      vendor_id       : [0][0][0][0]\n    Side data:\n      cpb: bitrate max/min/avg: 0/0/0 buffer size: 2500000 vbv_delay: N/A\nframe=    0 fps=0.0 q=0.0 size=       0KiB time=N/A bitrate=N/A speed=N/A elapsed=0:00:00.53    \nframe=    6 fps=5.2 q=50.0 size=       1KiB time=00:00:00.20 bitrate=  25.4kbits/s speed=0.173x elapsed=0:00:01.15    \nframe=   12 fps=7.1 q=47.0 size=       1KiB time=00:00:00.40 bitrate=  12.7kbits/s speed=0.237x elapsed=0:00:01.68    \nframe=   17 fps=7.7 q=45.0 size=       1KiB time=00:00:00.56 bitrate=   9.0kbits/s speed=0.256x elapsed=0:00:02.21    \nframe=   22 fps=8.1 q=45.0 size=       1KiB time=00:00:00.73 bitrate=   6.9kbits/s speed=0.269x elapsed=0:00:02.73    \nframe=   27 fps=8.3 q=45.0 size=       1KiB time=00:00:00.90 bitrate=   5.6kbits/s speed=0.278x elapsed=0:00:03.24    \nframe=   31 fps=8.2 q=28.0 size=       1KiB time=00:00:01.03 bitrate=   4.9kbits/s speed=0.274x elapsed=0:00:03.76    \nframe=   37 fps=8.6 q=45.0 size=       1KiB time=00:00:01.23 bitrate=   4.1kbits/s speed=0.288x elapsed=0:00:04.28    \nframe=   41 fps=8.5 q=30.0 size=       1KiB time=00:00:01.36 bitrate=   3.7kbits/s speed=0.284x elapsed=0:00:04.80    \nframe=   46 fps=8.6 q=42.0 size=       1KiB time=00:00:01.53 bitrate=   3.3kbits/s speed=0.288x elapsed=0:00:05.33    \nframe=   50 fps=8.6 q=42.0 size=       1KiB time=00:00:01.66 bitrate=   3.0kbits/s speed=0.285x elapsed=0:00:05.84    \nframe=   55 fps=8.6 q=42.0 size=       1KiB time=00:00:01.83 bitrate=   2.8kbits/s speed=0.287x elapsed=0:00:06.37    \nframe=   60 fps=8.7 q=41.0 size=       1KiB time=00:00:02.00 bitrate=   2.5kbits/s speed=0.29x elapsed=0:00:06.89    \nframe=   65 fps=8.7 q=41.0 size=       1KiB time=00:00:02.16 bitrate=   2.3kbits/s speed=0.291x elapsed=0:00:07.44    \nframe=   70 fps=8.8 q=42.0 size=       1KiB time=00:00:02.33 bitrate=   2.2kbits/s speed=0.293x elapsed=0:00:07.96    \nframe=   75 fps=8.8 q=41.0 size=       1KiB time=00:00:02.50 bitrate=   2.0kbits/s speed=0.294x elapsed=0:00:08.51    \nframe=   80 fps=8.9 q=43.0 size=       1KiB time=00:00:02.66 bitrate=   1.9kbits/s speed=0.295x elapsed=0:00:09.03    \nframe=   85 fps=8.9 q=43.0 size=       1KiB time=00:00:02.83 bitrate=   1.8kbits/s speed=0.296x elapsed=0:00:09.55    \nframe=   90 fps=8.9 q=44.0 size=       1KiB time=00:00:03.00 bitrate=   1.7kbits/s speed=0.298x elapsed=0:00:10.07    \nframe=   96 fps=9.1 q=43.0 size=       1KiB time=00:00:03.20 bitrate=   1.6kbits/s speed=0.302x elapsed=0:00:10.59    \nframe=  100 fps=9.0 q=44.0 size=       1KiB time=00:00:03.33 bitrate=   1.5kbits/s speed= 0.3x elapsed=0:00:11.10    \nframe=  106 fps=9.1 q=45.0 size=       1KiB time=00:00:03.53 bitrate=   1.4kbits/s speed=0.304x elapsed=0:00:11.61    \nframe=  111 fps=9.1 q=30.0 size=       1KiB time=00:00:03.70 bitrate=   1.4kbits/s speed=0.305x elapsed=0:00:12.14    \nframe=  116 fps=9.2 q=45.0 size=       1KiB time=00:00:03.86 bitrate=   1.3kbits/s speed=0.305x elapsed=0:00:12.65    \nframe=  121 fps=9.2 q=31.0 size=       1KiB time=00:00:04.03 bitrate=   1.3kbits/s speed=0.306x elapsed=0:00:13.17    \nframe=  126 fps=9.2 q=42.0 size=       1KiB time=00:00:04.20 bitrate=   1.2kbits/s speed=0.306x elapsed=0:00:13.70    \nframe=  126 fps=8.9 q=42.0 size=       1KiB time=00:00:04.20 bitrate=   1.2kbits/s speed=0.295x elapsed=0:00:14.21    \nframe=  126 fps=8.6 q=42.0 size=       1KiB time=00:00:04.20 bitrate=   1.2kbits/s speed=0.285x elapsed=0:00:14.72    \nframe=  126 fps=8.3 q=42.0 size=       1KiB time=00:00:04.20 bitrate=   1.2kbits/s speed=0.276x elapsed=0:00:15.24    \nframe=  126 fps=8.0 q=42.0 size=       1KiB time=00:00:04.20 bitrate=   1.2kbits/s speed=0.266x elapsed=0:00:15.76    \n[out#0/webm @ 000001e066cc0c00] video:1403KiB audio:0KiB subtitle:0KiB other streams:0KiB global headers:0KiB muxing overhead: 0.122534%\nframe=  150 fps=9.4 q=38.0 Lsize=    1405KiB time=00:00:05.00 bitrate=2302.3kbits/s speed=0.312x elapsed=0:00:16.01    \n",
  "seconds": 16.249542236328125,
  "probe_out": {}
}